<svg xmlns="http://www.w3.org/2000/svg">
  <defs>
    <g id="trash">
        <path d="M6.5 1h3a.5.5 0 0 1 .5.5v1H6v-1a.5.5 0 0 1 .5-.5ZM11 2.5v-1A1.5 1.5 0 0 0 9.5 0h-3A1.5 1.5 0 0 0 5 1.5v1H2.506a.58.58 0 0 0-.01 0H1.5a.5.5 0 0 0 0 1h.538l.853 10.66A2 2 0 0 0 4.885 16h6.23a2 2 0 0 0 1.994-1.84l.853-10.66h.538a.5.5 0 0 0 0-1h-.995a.59.59 0 0 0-.01 0H11Zm1.958 1-.846 10.58a1 1 0 0 1-.997.92h-6.23a1 1 0 0 1-.997-.92L3.042 3.5h9.916Zm-7.487 1a.5.5 0 0 1 .528.47l.5 8.5a.5.5 0 0 1-.998.06L5 5.03a.5.5 0 0 1 .47-.53Zm5.058 0a.5.5 0 0 1 .47.53l-.5 8.5a.5.5 0 1 1-.998-.06l.5-8.5a.5.5 0 0 1 .528-.47ZM8 4.5a.5.5 0 0 1 .5.5v8.5a.5.5 0 0 1-1 0V5a.5.5 0 0 1 .5-.5Z"/>
    </g>

    <g id="shape-icon-2" stroke="green" fill="white" stroke-width="5">
        <path d="M9.302 1.256a1.5 1.5 0 0 0-2.604 0l-1.704 2.98a.5.5 0 0 0 .869.497l1.703-2.981a.5.5 0 0 1 .868 0l2.54 4.444-1.256-.337a.5.5 0 1 0-.26.966l2.415.647a.5.5 0 0 0 .613-.353l.647-2.415a.5.5 0 1 0-.966-.259l-.333 1.242-2.532-4.431zM2.973 7.773l-1.255.337a.5.5 0 1 1-.26-.966l2.416-.647a.5.5 0 0 1 .612.353l.647 2.415a.5.5 0 0 1-.966.259l-.333-1.242-2.545 4.454a.5.5 0 0 0 .434.748H5a.5.5 0 0 1 0 1H1.723A1.5 1.5 0 0 1 .421 12.24l2.552-4.467zm10.89 1.463a.5.5 0 1 0-.868.496l1.716 3.004a.5.5 0 0 1-.434.748h-5.57l.647-.646a.5.5 0 1 0-.708-.707l-1.5 1.5a.498.498 0 0 0 0 .707l1.5 1.5a.5.5 0 1 0 .708-.707l-.647-.647h5.57a1.5 1.5 0 0 0 1.302-2.244l-1.716-3.004z"/>
    </g>

    <g id="gear">
        <path d="M9.405 1.05c-.413-1.4-2.397-1.4-2.81 0l-.1.34a1.464 1.464 0 0 1-2.105.872l-.31-.17c-1.283-.698-2.686.705-1.987 1.987l.169.311c.446.82.023 1.841-.872 2.105l-.34.1c-1.4.413-1.4 2.397 0 2.81l.34.1a1.464 1.464 0 0 1 .872 2.105l-.17.31c-.698 1.283.705 2.686 1.987 1.987l.311-.169a1.464 1.464 0 0 1 2.105.872l.1.34c.413 1.4 2.397 1.4 2.81 0l.1-.34a1.464 1.464 0 0 1 2.105-.872l.31.17c1.283.698 2.686-.705 1.987-1.987l-.169-.311a1.464 1.464 0 0 1 .872-2.105l.34-.1c1.4-.413 1.4-2.397 0-2.81l-.34-.1a1.464 1.464 0 0 1-.872-2.105l.17-.31c.698-1.283-.705-2.686-1.987-1.987l-.311.169a1.464 1.464 0 0 1-2.105-.872l-.1-.34zM8 10.93a2.929 2.929 0 1 1 0-5.86 2.929 2.929 0 0 1 0 5.858z"/>
    </g>

    <g id="plus">
        <path d="M14 1a1 1 0 0 1 1 1v12a1 1 0 0 1-1 1H2a1 1 0 0 1-1-1V2a1 1 0 0 1 1-1h12zM2 0a2 2 0 0 0-2 2v12a2 2 0 0 0 2 2h12a2 2 0 0 0 2-2V2a2 2 0 0 0-2-2H2z"/>
        <path d="M8 4a.5.5 0 0 1 .5.5v3h3a.5.5 0 0 1 0 1h-3v3a.5.5 0 0 1-1 0v-3h-3a.5.5 0 0 1 0-1h3v-3A.5.5 0 0 1 8 4z"/>
    </g>
  </defs>
</svg>